<mxfile host="app.diagrams.net" agent="Mozilla/5.0 (Windows NT 10.0; Win64; x64) AppleWebKit/537.36 (KHTML, like Gecko) Chrome/140.0.0.0 Safari/537.36" version="28.2.4">
  <diagram name="PÃ¡gina-1" id="fbpjPjUCMBuUjnJSYmKV">
    <mxGraphModel dx="2013" dy="703" grid="1" gridSize="10" guides="1" tooltips="1" connect="1" arrows="1" fold="1" page="1" pageScale="1" pageWidth="827" pageHeight="1169" math="0" shadow="0">
      <root>
        <mxCell id="0" />
        <mxCell id="1" parent="0" />
        <mxCell id="V2TgjVQ4rKX6lBCQuuzx-11" style="rounded=0;orthogonalLoop=1;jettySize=auto;html=1;endArrow=none;endFill=0;" edge="1" parent="1" source="V2TgjVQ4rKX6lBCQuuzx-1" target="V2TgjVQ4rKX6lBCQuuzx-4">
          <mxGeometry relative="1" as="geometry" />
        </mxCell>
        <mxCell id="V2TgjVQ4rKX6lBCQuuzx-12" style="shape=connector;rounded=0;orthogonalLoop=1;jettySize=auto;html=1;entryX=0.5;entryY=1;entryDx=0;entryDy=0;strokeColor=default;align=center;verticalAlign=middle;fontFamily=Helvetica;fontSize=11;fontColor=default;labelBackgroundColor=default;endArrow=none;endFill=0;" edge="1" parent="1" source="V2TgjVQ4rKX6lBCQuuzx-1" target="V2TgjVQ4rKX6lBCQuuzx-10">
          <mxGeometry relative="1" as="geometry" />
        </mxCell>
        <mxCell id="V2TgjVQ4rKX6lBCQuuzx-14" style="edgeStyle=none;shape=connector;rounded=0;orthogonalLoop=1;jettySize=auto;html=1;entryX=1;entryY=0.5;entryDx=0;entryDy=0;strokeColor=default;align=center;verticalAlign=middle;fontFamily=Helvetica;fontSize=11;fontColor=default;labelBackgroundColor=default;endArrow=none;endFill=0;" edge="1" parent="1" source="V2TgjVQ4rKX6lBCQuuzx-1" target="V2TgjVQ4rKX6lBCQuuzx-2">
          <mxGeometry relative="1" as="geometry" />
        </mxCell>
        <mxCell id="V2TgjVQ4rKX6lBCQuuzx-1" value="&lt;span id=&quot;docs-internal-guid-82ada1d1-7fff-25a4-6721-c77eb48dd0e4&quot;&gt;&lt;span style=&quot;font-size: 12pt; font-family: Calibri, sans-serif; background-color: transparent; font-variant-numeric: normal; font-variant-east-asian: normal; font-variant-alternates: normal; font-variant-position: normal; font-variant-emoji: normal; vertical-align: baseline; white-space-collapse: preserve;&quot;&gt;EQUIPA&lt;/span&gt;&lt;/span&gt;" style="whiteSpace=wrap;html=1;align=center;" vertex="1" parent="1">
          <mxGeometry x="260" y="240" width="100" height="40" as="geometry" />
        </mxCell>
        <mxCell id="V2TgjVQ4rKX6lBCQuuzx-2" value="NumInterno" style="ellipse;whiteSpace=wrap;html=1;align=center;fontStyle=4;" vertex="1" parent="1">
          <mxGeometry x="60" y="220" width="100" height="40" as="geometry" />
        </mxCell>
        <mxCell id="V2TgjVQ4rKX6lBCQuuzx-3" value="&lt;span id=&quot;docs-internal-guid-6a5323c5-7fff-96b4-de6c-49d1c6e5584b&quot;&gt;&lt;span style=&quot;font-size: 12pt; font-family: Calibri, sans-serif; background-color: transparent; font-variant-numeric: normal; font-variant-east-asian: normal; font-variant-alternates: normal; font-variant-position: normal; font-variant-emoji: normal; vertical-align: baseline; white-space-collapse: preserve;&quot;&gt;Nome&lt;/span&gt;&lt;/span&gt;" style="ellipse;whiteSpace=wrap;html=1;align=center;" vertex="1" parent="1">
          <mxGeometry x="120" y="160" width="100" height="40" as="geometry" />
        </mxCell>
        <mxCell id="V2TgjVQ4rKX6lBCQuuzx-15" style="edgeStyle=none;shape=connector;rounded=0;orthogonalLoop=1;jettySize=auto;html=1;entryX=1;entryY=1;entryDx=0;entryDy=0;strokeColor=default;align=center;verticalAlign=middle;fontFamily=Helvetica;fontSize=11;fontColor=default;labelBackgroundColor=default;endArrow=none;endFill=0;" edge="1" parent="1" source="V2TgjVQ4rKX6lBCQuuzx-4" target="V2TgjVQ4rKX6lBCQuuzx-5">
          <mxGeometry relative="1" as="geometry" />
        </mxCell>
        <mxCell id="V2TgjVQ4rKX6lBCQuuzx-16" style="edgeStyle=none;shape=connector;rounded=0;orthogonalLoop=1;jettySize=auto;html=1;entryX=0.5;entryY=1;entryDx=0;entryDy=0;strokeColor=default;align=center;verticalAlign=middle;fontFamily=Helvetica;fontSize=11;fontColor=default;labelBackgroundColor=default;endArrow=none;endFill=0;" edge="1" parent="1" source="V2TgjVQ4rKX6lBCQuuzx-4" target="V2TgjVQ4rKX6lBCQuuzx-6">
          <mxGeometry relative="1" as="geometry" />
        </mxCell>
        <mxCell id="V2TgjVQ4rKX6lBCQuuzx-17" style="edgeStyle=none;shape=connector;rounded=0;orthogonalLoop=1;jettySize=auto;html=1;strokeColor=default;align=center;verticalAlign=middle;fontFamily=Helvetica;fontSize=11;fontColor=default;labelBackgroundColor=default;endArrow=none;endFill=0;" edge="1" parent="1" source="V2TgjVQ4rKX6lBCQuuzx-4" target="V2TgjVQ4rKX6lBCQuuzx-7">
          <mxGeometry relative="1" as="geometry" />
        </mxCell>
        <mxCell id="V2TgjVQ4rKX6lBCQuuzx-19" style="edgeStyle=none;shape=connector;rounded=0;orthogonalLoop=1;jettySize=auto;html=1;entryX=0;entryY=1;entryDx=0;entryDy=0;strokeColor=default;align=center;verticalAlign=middle;fontFamily=Helvetica;fontSize=11;fontColor=default;labelBackgroundColor=default;endArrow=none;endFill=0;" edge="1" parent="1" source="V2TgjVQ4rKX6lBCQuuzx-4" target="V2TgjVQ4rKX6lBCQuuzx-9">
          <mxGeometry relative="1" as="geometry" />
        </mxCell>
        <mxCell id="V2TgjVQ4rKX6lBCQuuzx-4" value="&lt;span id=&quot;docs-internal-guid-c9922a5a-7fff-98de-f0df-f21f1a32bcc6&quot;&gt;&lt;span style=&quot;font-size: 12pt; font-family: Calibri, sans-serif; background-color: transparent; font-variant-numeric: normal; font-variant-east-asian: normal; font-variant-alternates: normal; font-variant-position: normal; font-variant-emoji: normal; vertical-align: baseline; white-space-collapse: preserve;&quot;&gt;Morada&lt;/span&gt;&lt;/span&gt;" style="ellipse;whiteSpace=wrap;html=1;align=center;" vertex="1" parent="1">
          <mxGeometry x="320" y="120" width="100" height="40" as="geometry" />
        </mxCell>
        <mxCell id="V2TgjVQ4rKX6lBCQuuzx-5" value="&lt;span id=&quot;docs-internal-guid-2d574fe3-7fff-f4cc-33d2-9e27e9267c21&quot;&gt;&lt;span style=&quot;font-size: 12pt; font-family: Calibri, sans-serif; background-color: transparent; font-variant-numeric: normal; font-variant-east-asian: normal; font-variant-alternates: normal; font-variant-position: normal; font-variant-emoji: normal; vertical-align: baseline; white-space-collapse: preserve;&quot;&gt;Rua&lt;/span&gt;&lt;/span&gt;" style="ellipse;whiteSpace=wrap;html=1;align=center;" vertex="1" parent="1">
          <mxGeometry x="160" y="80" width="100" height="40" as="geometry" />
        </mxCell>
        <mxCell id="V2TgjVQ4rKX6lBCQuuzx-6" value="&lt;span id=&quot;docs-internal-guid-87a292c5-7fff-371d-9a0a-89bdc7325820&quot;&gt;&lt;span style=&quot;font-size: 12pt; font-family: Calibri, sans-serif; background-color: transparent; font-variant-numeric: normal; font-variant-east-asian: normal; font-variant-alternates: normal; font-variant-position: normal; font-variant-emoji: normal; vertical-align: baseline; white-space-collapse: preserve;&quot;&gt;NumPorta&lt;/span&gt;&lt;/span&gt;" style="ellipse;whiteSpace=wrap;html=1;align=center;" vertex="1" parent="1">
          <mxGeometry x="240" y="40" width="100" height="40" as="geometry" />
        </mxCell>
        <mxCell id="V2TgjVQ4rKX6lBCQuuzx-7" value="&lt;span id=&quot;docs-internal-guid-e109e774-7fff-5e92-3200-88a18b4e317c&quot;&gt;&lt;span style=&quot;font-size: 12pt; font-family: Calibri, sans-serif; background-color: transparent; font-variant-numeric: normal; font-variant-east-asian: normal; font-variant-alternates: normal; font-variant-position: normal; font-variant-emoji: normal; vertical-align: baseline; white-space-collapse: preserve;&quot;&gt;CodPostal&lt;/span&gt;&lt;/span&gt;" style="ellipse;whiteSpace=wrap;html=1;align=center;" vertex="1" parent="1">
          <mxGeometry x="350" y="30" width="100" height="40" as="geometry" />
        </mxCell>
        <mxCell id="V2TgjVQ4rKX6lBCQuuzx-8" value="&lt;span id=&quot;docs-internal-guid-050440bb-7fff-8652-7d33-97916c16e3c6&quot;&gt;&lt;span style=&quot;font-size: 12pt; font-family: Calibri, sans-serif; background-color: transparent; font-variant-numeric: normal; font-variant-east-asian: normal; font-variant-alternates: normal; font-variant-position: normal; font-variant-emoji: normal; vertical-align: baseline; white-space-collapse: preserve;&quot;&gt;Localidade&lt;/span&gt;&lt;/span&gt;" style="ellipse;whiteSpace=wrap;html=1;align=center;" vertex="1" parent="1">
          <mxGeometry x="450" y="50" width="100" height="40" as="geometry" />
        </mxCell>
        <mxCell id="V2TgjVQ4rKX6lBCQuuzx-9" value="&lt;span id=&quot;docs-internal-guid-076a9b4a-7fff-a9f1-a1f0-a48d84ea1d8a&quot;&gt;&lt;span style=&quot;font-size: 12pt; font-family: Calibri, sans-serif; background-color: transparent; font-variant-numeric: normal; font-variant-east-asian: normal; font-variant-alternates: normal; font-variant-position: normal; font-variant-emoji: normal; vertical-align: baseline; white-space-collapse: preserve;&quot;&gt;Pais&lt;/span&gt;&lt;/span&gt;" style="ellipse;whiteSpace=wrap;html=1;align=center;" vertex="1" parent="1">
          <mxGeometry x="500" y="90" width="100" height="40" as="geometry" />
        </mxCell>
        <mxCell id="V2TgjVQ4rKX6lBCQuuzx-10" value="&lt;span id=&quot;docs-internal-guid-e09d5990-7fff-cdaf-cfb5-4b0c4fd7e437&quot;&gt;&lt;span style=&quot;font-size: 12pt; font-family: Calibri, sans-serif; background-color: transparent; font-variant-numeric: normal; font-variant-east-asian: normal; font-variant-alternates: normal; font-variant-position: normal; font-variant-emoji: normal; vertical-align: baseline; white-space-collapse: preserve;&quot;&gt;AnoFundacao&lt;/span&gt;&lt;/span&gt;" style="ellipse;whiteSpace=wrap;html=1;align=center;" vertex="1" parent="1">
          <mxGeometry x="470" y="160" width="100" height="40" as="geometry" />
        </mxCell>
        <mxCell id="V2TgjVQ4rKX6lBCQuuzx-13" style="shape=connector;rounded=0;orthogonalLoop=1;jettySize=auto;html=1;entryX=0.76;entryY=0.95;entryDx=0;entryDy=0;entryPerimeter=0;strokeColor=default;align=center;verticalAlign=middle;fontFamily=Helvetica;fontSize=11;fontColor=default;labelBackgroundColor=default;endArrow=none;endFill=0;" edge="1" parent="1" source="V2TgjVQ4rKX6lBCQuuzx-1" target="V2TgjVQ4rKX6lBCQuuzx-3">
          <mxGeometry relative="1" as="geometry" />
        </mxCell>
        <mxCell id="V2TgjVQ4rKX6lBCQuuzx-18" style="edgeStyle=none;shape=connector;rounded=0;orthogonalLoop=1;jettySize=auto;html=1;entryX=0.26;entryY=0.925;entryDx=0;entryDy=0;entryPerimeter=0;strokeColor=default;align=center;verticalAlign=middle;fontFamily=Helvetica;fontSize=11;fontColor=default;labelBackgroundColor=default;endArrow=none;endFill=0;" edge="1" parent="1" source="V2TgjVQ4rKX6lBCQuuzx-4" target="V2TgjVQ4rKX6lBCQuuzx-8">
          <mxGeometry relative="1" as="geometry" />
        </mxCell>
        <mxCell id="V2TgjVQ4rKX6lBCQuuzx-30" style="edgeStyle=none;shape=connector;rounded=0;orthogonalLoop=1;jettySize=auto;html=1;strokeColor=default;align=center;verticalAlign=middle;fontFamily=Helvetica;fontSize=11;fontColor=default;labelBackgroundColor=default;endArrow=none;endFill=0;" edge="1" parent="1" source="V2TgjVQ4rKX6lBCQuuzx-21" target="V2TgjVQ4rKX6lBCQuuzx-23">
          <mxGeometry relative="1" as="geometry" />
        </mxCell>
        <mxCell id="V2TgjVQ4rKX6lBCQuuzx-31" style="edgeStyle=none;shape=connector;rounded=0;orthogonalLoop=1;jettySize=auto;html=1;strokeColor=default;align=center;verticalAlign=middle;fontFamily=Helvetica;fontSize=11;fontColor=default;labelBackgroundColor=default;endArrow=none;endFill=0;" edge="1" parent="1" source="V2TgjVQ4rKX6lBCQuuzx-21" target="V2TgjVQ4rKX6lBCQuuzx-24">
          <mxGeometry relative="1" as="geometry" />
        </mxCell>
        <mxCell id="V2TgjVQ4rKX6lBCQuuzx-32" style="edgeStyle=none;shape=connector;rounded=0;orthogonalLoop=1;jettySize=auto;html=1;strokeColor=default;align=center;verticalAlign=middle;fontFamily=Helvetica;fontSize=11;fontColor=default;labelBackgroundColor=default;endArrow=none;endFill=0;" edge="1" parent="1" source="V2TgjVQ4rKX6lBCQuuzx-21" target="V2TgjVQ4rKX6lBCQuuzx-25">
          <mxGeometry relative="1" as="geometry" />
        </mxCell>
        <mxCell id="V2TgjVQ4rKX6lBCQuuzx-33" style="edgeStyle=none;shape=connector;rounded=0;orthogonalLoop=1;jettySize=auto;html=1;strokeColor=default;align=center;verticalAlign=middle;fontFamily=Helvetica;fontSize=11;fontColor=default;labelBackgroundColor=default;endArrow=none;endFill=0;" edge="1" parent="1" source="V2TgjVQ4rKX6lBCQuuzx-21" target="V2TgjVQ4rKX6lBCQuuzx-27">
          <mxGeometry relative="1" as="geometry" />
        </mxCell>
        <mxCell id="V2TgjVQ4rKX6lBCQuuzx-34" style="edgeStyle=none;shape=connector;rounded=0;orthogonalLoop=1;jettySize=auto;html=1;strokeColor=default;align=center;verticalAlign=middle;fontFamily=Helvetica;fontSize=11;fontColor=default;labelBackgroundColor=default;endArrow=none;endFill=0;" edge="1" parent="1" source="V2TgjVQ4rKX6lBCQuuzx-21" target="V2TgjVQ4rKX6lBCQuuzx-28">
          <mxGeometry relative="1" as="geometry" />
        </mxCell>
        <mxCell id="V2TgjVQ4rKX6lBCQuuzx-21" value="&lt;span id=&quot;docs-internal-guid-bf5b471a-7fff-497d-8efd-91fbafdf9cba&quot;&gt;&lt;span style=&quot;font-size: 12pt; font-family: Calibri, sans-serif; background-color: transparent; font-variant-numeric: normal; font-variant-east-asian: normal; font-variant-alternates: normal; font-variant-position: normal; font-variant-emoji: normal; vertical-align: baseline; white-space-collapse: preserve;&quot;&gt;JOGADOR&lt;/span&gt;&lt;/span&gt;" style="whiteSpace=wrap;html=1;align=center;fontFamily=Helvetica;fontSize=11;fontColor=default;labelBackgroundColor=default;" vertex="1" parent="1">
          <mxGeometry x="540" y="450" width="100" height="40" as="geometry" />
        </mxCell>
        <mxCell id="V2TgjVQ4rKX6lBCQuuzx-22" value="&lt;span id=&quot;docs-internal-guid-182e9932-7fff-b59d-46a2-6039c65ad3a7&quot;&gt;&lt;span style=&quot;font-size: 12pt; font-family: Calibri, sans-serif; background-color: transparent; font-variant-numeric: normal; font-variant-east-asian: normal; font-variant-alternates: normal; font-variant-position: normal; font-variant-emoji: normal; text-decoration-skip-ink: none; vertical-align: baseline; white-space-collapse: preserve;&quot;&gt;NumJogador&lt;/span&gt;&lt;/span&gt;" style="ellipse;whiteSpace=wrap;html=1;align=center;fontStyle=4;" vertex="1" parent="1">
          <mxGeometry x="610" y="340" width="100" height="40" as="geometry" />
        </mxCell>
        <mxCell id="V2TgjVQ4rKX6lBCQuuzx-23" value="&lt;span id=&quot;docs-internal-guid-f14706e6-7fff-d5a2-7283-ab18e69a98eb&quot;&gt;&lt;span style=&quot;font-size: 12pt; font-family: Calibri, sans-serif; background-color: transparent; font-variant-numeric: normal; font-variant-east-asian: normal; font-variant-alternates: normal; font-variant-position: normal; font-variant-emoji: normal; vertical-align: baseline; white-space-collapse: preserve;&quot;&gt;Nome&lt;/span&gt;&lt;/span&gt;" style="ellipse;whiteSpace=wrap;html=1;align=center;fontFamily=Helvetica;fontSize=11;fontColor=default;labelBackgroundColor=default;" vertex="1" parent="1">
          <mxGeometry x="680" y="380" width="100" height="40" as="geometry" />
        </mxCell>
        <mxCell id="V2TgjVQ4rKX6lBCQuuzx-24" value="&lt;span id=&quot;docs-internal-guid-5119726d-7fff-0afc-fef2-4cbaeeb8ec4a&quot;&gt;&lt;span style=&quot;font-size: 12pt; font-family: Calibri, sans-serif; background-color: transparent; font-variant-numeric: normal; font-variant-east-asian: normal; font-variant-alternates: normal; font-variant-position: normal; font-variant-emoji: normal; vertical-align: baseline; white-space-collapse: preserve;&quot;&gt;DataNascimento&lt;/span&gt;&lt;/span&gt;" style="ellipse;whiteSpace=wrap;html=1;align=center;fontFamily=Helvetica;fontSize=11;fontColor=default;labelBackgroundColor=default;" vertex="1" parent="1">
          <mxGeometry x="710" y="430" width="100" height="40" as="geometry" />
        </mxCell>
        <mxCell id="V2TgjVQ4rKX6lBCQuuzx-25" value="&lt;span id=&quot;docs-internal-guid-211050cd-7fff-761d-d1bd-8df14f746d80&quot;&gt;&lt;span style=&quot;font-size: 12pt; font-family: Calibri, sans-serif; background-color: transparent; font-variant-numeric: normal; font-variant-east-asian: normal; font-variant-alternates: normal; font-variant-position: normal; font-variant-emoji: normal; vertical-align: baseline; white-space-collapse: preserve;&quot;&gt;Idade&lt;/span&gt;&lt;/span&gt;" style="ellipse;whiteSpace=wrap;html=1;align=center;dashed=1;fontFamily=Helvetica;fontSize=11;fontColor=default;labelBackgroundColor=default;" vertex="1" parent="1">
          <mxGeometry x="700" y="480" width="100" height="40" as="geometry" />
        </mxCell>
        <mxCell id="V2TgjVQ4rKX6lBCQuuzx-27" value="&lt;span id=&quot;docs-internal-guid-3283ac75-7fff-beec-8643-266a2d2184bf&quot;&gt;&lt;span style=&quot;font-size: 12pt; font-family: Calibri, sans-serif; background-color: transparent; font-variant-numeric: normal; font-variant-east-asian: normal; font-variant-alternates: normal; font-variant-position: normal; font-variant-emoji: normal; vertical-align: baseline; white-space-collapse: preserve;&quot;&gt;GÃ©nero&lt;/span&gt;&lt;/span&gt;" style="ellipse;whiteSpace=wrap;html=1;align=center;fontFamily=Helvetica;fontSize=11;fontColor=default;labelBackgroundColor=default;" vertex="1" parent="1">
          <mxGeometry x="680" y="530" width="100" height="40" as="geometry" />
        </mxCell>
        <mxCell id="V2TgjVQ4rKX6lBCQuuzx-28" value="&lt;span id=&quot;docs-internal-guid-913373cb-7fff-f60d-8bd1-d2383a2b9f8f&quot;&gt;&lt;span style=&quot;font-size: 12pt; font-family: Calibri, sans-serif; background-color: transparent; font-variant-numeric: normal; font-variant-east-asian: normal; font-variant-alternates: normal; font-variant-position: normal; font-variant-emoji: normal; vertical-align: baseline; white-space-collapse: preserve;&quot;&gt;PosiÃ§Ã£o&lt;/span&gt;&lt;/span&gt;" style="ellipse;whiteSpace=wrap;html=1;align=center;fontFamily=Helvetica;fontSize=11;fontColor=default;labelBackgroundColor=default;" vertex="1" parent="1">
          <mxGeometry x="610" y="565" width="100" height="40" as="geometry" />
        </mxCell>
        <mxCell id="V2TgjVQ4rKX6lBCQuuzx-29" style="edgeStyle=none;shape=connector;rounded=0;orthogonalLoop=1;jettySize=auto;html=1;entryX=0.32;entryY=0.925;entryDx=0;entryDy=0;entryPerimeter=0;strokeColor=default;align=center;verticalAlign=middle;fontFamily=Helvetica;fontSize=11;fontColor=default;labelBackgroundColor=default;endArrow=none;endFill=0;" edge="1" parent="1" source="V2TgjVQ4rKX6lBCQuuzx-21" target="V2TgjVQ4rKX6lBCQuuzx-22">
          <mxGeometry relative="1" as="geometry" />
        </mxCell>
        <mxCell id="V2TgjVQ4rKX6lBCQuuzx-47" style="edgeStyle=none;shape=connector;rounded=0;orthogonalLoop=1;jettySize=auto;html=1;strokeColor=default;align=center;verticalAlign=middle;fontFamily=Helvetica;fontSize=11;fontColor=default;labelBackgroundColor=default;endArrow=none;endFill=0;" edge="1" parent="1" source="V2TgjVQ4rKX6lBCQuuzx-37" target="V2TgjVQ4rKX6lBCQuuzx-43">
          <mxGeometry relative="1" as="geometry" />
        </mxCell>
        <mxCell id="V2TgjVQ4rKX6lBCQuuzx-48" style="edgeStyle=none;shape=connector;rounded=0;orthogonalLoop=1;jettySize=auto;html=1;strokeColor=default;align=center;verticalAlign=middle;fontFamily=Helvetica;fontSize=11;fontColor=default;labelBackgroundColor=default;endArrow=none;endFill=0;" edge="1" parent="1" source="V2TgjVQ4rKX6lBCQuuzx-37" target="V2TgjVQ4rKX6lBCQuuzx-42">
          <mxGeometry relative="1" as="geometry" />
        </mxCell>
        <mxCell id="V2TgjVQ4rKX6lBCQuuzx-49" style="edgeStyle=none;shape=connector;rounded=0;orthogonalLoop=1;jettySize=auto;html=1;entryX=1;entryY=0.5;entryDx=0;entryDy=0;strokeColor=default;align=center;verticalAlign=middle;fontFamily=Helvetica;fontSize=11;fontColor=default;labelBackgroundColor=default;endArrow=none;endFill=0;" edge="1" parent="1" source="V2TgjVQ4rKX6lBCQuuzx-37" target="V2TgjVQ4rKX6lBCQuuzx-41">
          <mxGeometry relative="1" as="geometry" />
        </mxCell>
        <mxCell id="V2TgjVQ4rKX6lBCQuuzx-50" style="edgeStyle=none;shape=connector;rounded=0;orthogonalLoop=1;jettySize=auto;html=1;strokeColor=default;align=center;verticalAlign=middle;fontFamily=Helvetica;fontSize=11;fontColor=default;labelBackgroundColor=default;endArrow=none;endFill=0;" edge="1" parent="1" source="V2TgjVQ4rKX6lBCQuuzx-37" target="V2TgjVQ4rKX6lBCQuuzx-40">
          <mxGeometry relative="1" as="geometry" />
        </mxCell>
        <mxCell id="V2TgjVQ4rKX6lBCQuuzx-37" value="&lt;span id=&quot;docs-internal-guid-05d96637-7fff-d6ce-4930-e902e9227f8b&quot;&gt;&lt;span style=&quot;font-size: 12pt; font-family: Calibri, sans-serif; background-color: transparent; font-variant-numeric: normal; font-variant-east-asian: normal; font-variant-alternates: normal; font-variant-position: normal; font-variant-emoji: normal; vertical-align: baseline; white-space-collapse: preserve;&quot;&gt;JOGO&lt;/span&gt;&lt;/span&gt;" style="whiteSpace=wrap;html=1;align=center;fontFamily=Helvetica;fontSize=11;fontColor=default;labelBackgroundColor=default;" vertex="1" parent="1">
          <mxGeometry x="130" y="460" width="100" height="40" as="geometry" />
        </mxCell>
        <mxCell id="V2TgjVQ4rKX6lBCQuuzx-38" value="&lt;span id=&quot;docs-internal-guid-0e88a25c-7fff-251d-21c6-4798df91e182&quot;&gt;&lt;span style=&quot;font-size: 12pt; font-family: Calibri, sans-serif; background-color: transparent; font-variant-numeric: normal; font-variant-east-asian: normal; font-variant-alternates: normal; font-variant-position: normal; font-variant-emoji: normal; text-decoration-skip-ink: none; vertical-align: baseline; white-space-collapse: preserve;&quot;&gt;NumJogo&lt;/span&gt;&lt;/span&gt;" style="ellipse;whiteSpace=wrap;html=1;align=center;fontStyle=4;fontFamily=Helvetica;fontSize=11;fontColor=default;labelBackgroundColor=default;" vertex="1" parent="1">
          <mxGeometry x="-10" y="380" width="100" height="40" as="geometry" />
        </mxCell>
        <mxCell id="V2TgjVQ4rKX6lBCQuuzx-39" value="&lt;span id=&quot;docs-internal-guid-4046ecaa-7fff-575c-d95c-d04079f6e614&quot;&gt;&lt;span style=&quot;font-size: 12pt; font-family: Calibri, sans-serif; background-color: transparent; font-variant-numeric: normal; font-variant-east-asian: normal; font-variant-alternates: normal; font-variant-position: normal; font-variant-emoji: normal; vertical-align: baseline; white-space-collapse: preserve;&quot;&gt;Data&lt;/span&gt;&lt;/span&gt;" style="ellipse;whiteSpace=wrap;html=1;align=center;fontFamily=Helvetica;fontSize=11;fontColor=default;labelBackgroundColor=default;" vertex="1" parent="1">
          <mxGeometry x="-50" y="430" width="100" height="40" as="geometry" />
        </mxCell>
        <mxCell id="V2TgjVQ4rKX6lBCQuuzx-40" value="&lt;span id=&quot;docs-internal-guid-9d1815be-7fff-80cc-f8f4-22cabb9d2abb&quot;&gt;&lt;span style=&quot;font-size: 12pt; font-family: Calibri, sans-serif; background-color: transparent; font-variant-numeric: normal; font-variant-east-asian: normal; font-variant-alternates: normal; font-variant-position: normal; font-variant-emoji: normal; vertical-align: baseline; white-space-collapse: preserve;&quot;&gt;Local&lt;/span&gt;&lt;/span&gt;" style="ellipse;whiteSpace=wrap;html=1;align=center;fontFamily=Helvetica;fontSize=11;fontColor=default;labelBackgroundColor=default;" vertex="1" parent="1">
          <mxGeometry x="-40" y="480" width="100" height="40" as="geometry" />
        </mxCell>
        <mxCell id="V2TgjVQ4rKX6lBCQuuzx-41" value="&lt;span id=&quot;docs-internal-guid-1119e8d3-7fff-a0e0-401a-76bb0a22cffc&quot;&gt;&lt;span style=&quot;font-size: 12pt; font-family: Calibri, sans-serif; background-color: transparent; font-variant-numeric: normal; font-variant-east-asian: normal; font-variant-alternates: normal; font-variant-position: normal; font-variant-emoji: normal; vertical-align: baseline; white-space-collapse: preserve;&quot;&gt;Visitado&lt;/span&gt;&lt;/span&gt;" style="ellipse;whiteSpace=wrap;html=1;align=center;fontFamily=Helvetica;fontSize=11;fontColor=default;labelBackgroundColor=default;" vertex="1" parent="1">
          <mxGeometry x="-30" y="525" width="100" height="40" as="geometry" />
        </mxCell>
        <mxCell id="V2TgjVQ4rKX6lBCQuuzx-42" value="&lt;span id=&quot;docs-internal-guid-8269ffdb-7fff-b7a0-0ec2-40fff89e0448&quot;&gt;&lt;span style=&quot;font-size: 12pt; font-family: Calibri, sans-serif; background-color: transparent; font-variant-numeric: normal; font-variant-east-asian: normal; font-variant-alternates: normal; font-variant-position: normal; font-variant-emoji: normal; vertical-align: baseline; white-space-collapse: preserve;&quot;&gt;Visitante&lt;/span&gt;&lt;/span&gt;" style="ellipse;whiteSpace=wrap;html=1;align=center;fontFamily=Helvetica;fontSize=11;fontColor=default;labelBackgroundColor=default;" vertex="1" parent="1">
          <mxGeometry x="30" y="565" width="100" height="40" as="geometry" />
        </mxCell>
        <mxCell id="V2TgjVQ4rKX6lBCQuuzx-43" value="&lt;span id=&quot;docs-internal-guid-3236494b-7fff-ef62-ea91-3704ec7eb339&quot;&gt;&lt;span style=&quot;font-size: 12pt; font-family: Calibri, sans-serif; background-color: transparent; font-variant-numeric: normal; font-variant-east-asian: normal; font-variant-alternates: normal; font-variant-position: normal; font-variant-emoji: normal; vertical-align: baseline; white-space-collapse: preserve;&quot;&gt;Resultado?&lt;/span&gt;&lt;/span&gt;" style="ellipse;whiteSpace=wrap;html=1;align=center;fontFamily=Helvetica;fontSize=11;fontColor=default;labelBackgroundColor=default;" vertex="1" parent="1">
          <mxGeometry x="120" y="605" width="100" height="40" as="geometry" />
        </mxCell>
        <mxCell id="V2TgjVQ4rKX6lBCQuuzx-51" style="edgeStyle=none;shape=connector;rounded=0;orthogonalLoop=1;jettySize=auto;html=1;entryX=0.93;entryY=0.65;entryDx=0;entryDy=0;entryPerimeter=0;strokeColor=default;align=center;verticalAlign=middle;fontFamily=Helvetica;fontSize=11;fontColor=default;labelBackgroundColor=default;endArrow=none;endFill=0;" edge="1" parent="1" source="V2TgjVQ4rKX6lBCQuuzx-37" target="V2TgjVQ4rKX6lBCQuuzx-39">
          <mxGeometry relative="1" as="geometry" />
        </mxCell>
        <mxCell id="V2TgjVQ4rKX6lBCQuuzx-53" style="edgeStyle=none;shape=connector;rounded=0;orthogonalLoop=1;jettySize=auto;html=1;entryX=0.93;entryY=0.675;entryDx=0;entryDy=0;entryPerimeter=0;strokeColor=default;align=center;verticalAlign=middle;fontFamily=Helvetica;fontSize=11;fontColor=default;labelBackgroundColor=default;endArrow=none;endFill=0;" edge="1" parent="1" source="V2TgjVQ4rKX6lBCQuuzx-37" target="V2TgjVQ4rKX6lBCQuuzx-38">
          <mxGeometry relative="1" as="geometry" />
        </mxCell>
        <mxCell id="V2TgjVQ4rKX6lBCQuuzx-54" value="&lt;span id=&quot;docs-internal-guid-bf8d1f8a-7fff-386b-e1fa-49635a8670f6&quot;&gt;&lt;span style=&quot;font-size: 12pt; font-family: Calibri, sans-serif; background-color: transparent; font-variant-numeric: normal; font-variant-east-asian: normal; font-variant-alternates: normal; font-variant-position: normal; font-variant-emoji: normal; vertical-align: baseline; white-space-collapse: preserve;&quot;&gt;JOGOU&lt;/span&gt;&lt;/span&gt;" style="shape=rhombus;perimeter=rhombusPerimeter;whiteSpace=wrap;html=1;align=center;fontFamily=Helvetica;fontSize=11;fontColor=default;labelBackgroundColor=default;" vertex="1" parent="1">
          <mxGeometry x="160" y="330" width="120" height="60" as="geometry" />
        </mxCell>
        <mxCell id="V2TgjVQ4rKX6lBCQuuzx-59" value="" style="endArrow=none;html=1;rounded=0;strokeColor=default;align=center;verticalAlign=middle;fontFamily=Helvetica;fontSize=11;fontColor=default;labelBackgroundColor=default;exitX=0.5;exitY=0;exitDx=0;exitDy=0;entryX=0.5;entryY=1;entryDx=0;entryDy=0;edgeStyle=orthogonalEdgeStyle;" edge="1" parent="1" source="V2TgjVQ4rKX6lBCQuuzx-54" target="V2TgjVQ4rKX6lBCQuuzx-1">
          <mxGeometry relative="1" as="geometry">
            <mxPoint x="330" y="360" as="sourcePoint" />
            <mxPoint x="490" y="360" as="targetPoint" />
          </mxGeometry>
        </mxCell>
        <mxCell id="V2TgjVQ4rKX6lBCQuuzx-60" value="N" style="resizable=0;html=1;whiteSpace=wrap;align=right;verticalAlign=bottom;fontFamily=Helvetica;fontSize=11;fontColor=default;labelBackgroundColor=default;" connectable="0" vertex="1" parent="V2TgjVQ4rKX6lBCQuuzx-59">
          <mxGeometry x="1" relative="1" as="geometry">
            <mxPoint y="20" as="offset" />
          </mxGeometry>
        </mxCell>
        <mxCell id="V2TgjVQ4rKX6lBCQuuzx-61" value="" style="shape=link;html=1;rounded=0;strokeColor=default;align=center;verticalAlign=middle;fontFamily=Helvetica;fontSize=11;fontColor=default;labelBackgroundColor=default;endArrow=none;endFill=0;exitX=0.5;exitY=1;exitDx=0;exitDy=0;entryX=0.5;entryY=0;entryDx=0;entryDy=0;edgeStyle=orthogonalEdgeStyle;" edge="1" parent="1" source="V2TgjVQ4rKX6lBCQuuzx-54" target="V2TgjVQ4rKX6lBCQuuzx-37">
          <mxGeometry relative="1" as="geometry">
            <mxPoint x="330" y="360" as="sourcePoint" />
            <mxPoint x="490" y="360" as="targetPoint" />
          </mxGeometry>
        </mxCell>
        <mxCell id="V2TgjVQ4rKX6lBCQuuzx-62" value="1" style="resizable=0;html=1;whiteSpace=wrap;align=right;verticalAlign=bottom;fontFamily=Helvetica;fontSize=11;fontColor=default;labelBackgroundColor=default;" connectable="0" vertex="1" parent="V2TgjVQ4rKX6lBCQuuzx-61">
          <mxGeometry x="1" relative="1" as="geometry">
            <mxPoint x="20" y="-10" as="offset" />
          </mxGeometry>
        </mxCell>
        <mxCell id="V2TgjVQ4rKX6lBCQuuzx-67" style="edgeStyle=none;shape=connector;rounded=0;orthogonalLoop=1;jettySize=auto;html=1;entryX=0.5;entryY=0;entryDx=0;entryDy=0;strokeColor=default;align=center;verticalAlign=middle;fontFamily=Helvetica;fontSize=11;fontColor=default;labelBackgroundColor=default;endArrow=none;endFill=0;" edge="1" parent="1" source="V2TgjVQ4rKX6lBCQuuzx-64" target="V2TgjVQ4rKX6lBCQuuzx-66">
          <mxGeometry relative="1" as="geometry" />
        </mxCell>
        <mxCell id="V2TgjVQ4rKX6lBCQuuzx-68" style="edgeStyle=none;shape=connector;rounded=0;orthogonalLoop=1;jettySize=auto;html=1;entryX=1;entryY=0;entryDx=0;entryDy=0;strokeColor=default;align=center;verticalAlign=middle;fontFamily=Helvetica;fontSize=11;fontColor=default;labelBackgroundColor=default;endArrow=none;endFill=0;" edge="1" parent="1" source="V2TgjVQ4rKX6lBCQuuzx-64" target="V2TgjVQ4rKX6lBCQuuzx-65">
          <mxGeometry relative="1" as="geometry" />
        </mxCell>
        <mxCell id="V2TgjVQ4rKX6lBCQuuzx-64" value="&lt;span id=&quot;docs-internal-guid-25c842cf-7fff-beee-e525-d1ae46ddfbcc&quot;&gt;&lt;span style=&quot;font-size: 12pt; font-family: Calibri, sans-serif; background-color: transparent; font-variant-numeric: normal; font-variant-east-asian: normal; font-variant-alternates: normal; font-variant-position: normal; font-variant-emoji: normal; vertical-align: baseline; white-space-collapse: preserve;&quot;&gt;FILIADO_A&lt;/span&gt;&lt;/span&gt;" style="shape=rhombus;perimeter=rhombusPerimeter;whiteSpace=wrap;html=1;align=center;fontFamily=Helvetica;fontSize=11;fontColor=default;labelBackgroundColor=default;" vertex="1" parent="1">
          <mxGeometry x="400" y="340" width="120" height="60" as="geometry" />
        </mxCell>
        <mxCell id="V2TgjVQ4rKX6lBCQuuzx-65" value="&lt;span id=&quot;docs-internal-guid-24743f0a-7fff-118f-1b7b-ecd380fe0fbc&quot;&gt;&lt;span style=&quot;font-size: 12pt; font-family: Calibri, sans-serif; background-color: transparent; font-variant-numeric: normal; font-variant-east-asian: normal; font-variant-alternates: normal; font-variant-position: normal; font-variant-emoji: normal; vertical-align: baseline; white-space-collapse: preserve;&quot;&gt;AnoCorrente&lt;/span&gt;&lt;/span&gt;" style="ellipse;whiteSpace=wrap;html=1;align=center;fontFamily=Helvetica;fontSize=11;fontColor=default;labelBackgroundColor=default;" vertex="1" parent="1">
          <mxGeometry x="270" y="400" width="100" height="40" as="geometry" />
        </mxCell>
        <mxCell id="V2TgjVQ4rKX6lBCQuuzx-66" value="&lt;span id=&quot;docs-internal-guid-ec72b6dc-7fff-357d-f3da-cb88da5e7c19&quot;&gt;&lt;span style=&quot;font-size: 12pt; font-family: Calibri, sans-serif; background-color: transparent; font-variant-numeric: normal; font-variant-east-asian: normal; font-variant-alternates: normal; font-variant-position: normal; font-variant-emoji: normal; vertical-align: baseline; white-space-collapse: preserve;&quot;&gt;EscalÃ£o&lt;/span&gt;&lt;/span&gt;" style="ellipse;whiteSpace=wrap;html=1;align=center;fontFamily=Helvetica;fontSize=11;fontColor=default;labelBackgroundColor=default;" vertex="1" parent="1">
          <mxGeometry x="310" y="450" width="100" height="40" as="geometry" />
        </mxCell>
        <mxCell id="V2TgjVQ4rKX6lBCQuuzx-70" value="" style="shape=link;html=1;rounded=0;strokeColor=default;align=center;verticalAlign=middle;fontFamily=Helvetica;fontSize=11;fontColor=default;labelBackgroundColor=default;endArrow=none;endFill=0;exitX=1;exitY=0.5;exitDx=0;exitDy=0;edgeStyle=orthogonalEdgeStyle;entryX=0.5;entryY=0;entryDx=0;entryDy=0;" edge="1" parent="1" source="V2TgjVQ4rKX6lBCQuuzx-1" target="V2TgjVQ4rKX6lBCQuuzx-64">
          <mxGeometry relative="1" as="geometry">
            <mxPoint x="330" y="360" as="sourcePoint" />
            <mxPoint x="490" y="360" as="targetPoint" />
            <Array as="points">
              <mxPoint x="460" y="260" />
            </Array>
          </mxGeometry>
        </mxCell>
        <mxCell id="V2TgjVQ4rKX6lBCQuuzx-71" value="N" style="resizable=0;html=1;whiteSpace=wrap;align=right;verticalAlign=bottom;fontFamily=Helvetica;fontSize=11;fontColor=default;labelBackgroundColor=default;" connectable="0" vertex="1" parent="V2TgjVQ4rKX6lBCQuuzx-70">
          <mxGeometry x="1" relative="1" as="geometry">
            <mxPoint x="-10" y="-10" as="offset" />
          </mxGeometry>
        </mxCell>
        <mxCell id="V2TgjVQ4rKX6lBCQuuzx-72" value="" style="endArrow=none;html=1;rounded=0;strokeColor=default;align=center;verticalAlign=middle;fontFamily=Helvetica;fontSize=11;fontColor=default;labelBackgroundColor=default;entryX=0;entryY=0.5;entryDx=0;entryDy=0;edgeStyle=orthogonalEdgeStyle;exitX=0.5;exitY=1;exitDx=0;exitDy=0;" edge="1" parent="1" source="V2TgjVQ4rKX6lBCQuuzx-64" target="V2TgjVQ4rKX6lBCQuuzx-21">
          <mxGeometry relative="1" as="geometry">
            <mxPoint x="460" y="420" as="sourcePoint" />
            <mxPoint x="490" y="360" as="targetPoint" />
          </mxGeometry>
        </mxCell>
        <mxCell id="V2TgjVQ4rKX6lBCQuuzx-73" value="1" style="resizable=0;html=1;whiteSpace=wrap;align=right;verticalAlign=bottom;fontFamily=Helvetica;fontSize=11;fontColor=default;labelBackgroundColor=default;" connectable="0" vertex="1" parent="V2TgjVQ4rKX6lBCQuuzx-72">
          <mxGeometry x="1" relative="1" as="geometry">
            <mxPoint x="-30" as="offset" />
          </mxGeometry>
        </mxCell>
      </root>
    </mxGraphModel>
  </diagram>
</mxfile>
